<svg width="75" height="75" viewBox="0 0 75 75" fill="none" xmlns="http://www.w3.org/2000/svg">
<g clip-path="url(#clip0)">
<path d="M37.5 0C58.2103 0 75 16.7897 75 37.5C75 58.2103 58.2103 75 37.5 75C16.7897 75 0 58.2103 0 37.5C0 16.7897 16.7897 0 37.5 0ZM37.5 68.75C54.7585 68.75 68.75 54.7585 68.75 37.5C68.75 20.2415 54.7585 6.25005 37.5 6.25005C20.2415 6.25005 6.25005 20.2415 6.25005 37.5C6.25005 54.7585 20.2415 68.75 37.5 68.75Z" fill="url(#paint0_linear)"/>
<path d="M41.5403 19.6652C42.7607 18.4449 44.7394 18.4449 45.9598 19.6652C47.1801 20.8856 47.1801 22.8643 45.9598 24.0847L32.5444 37.5L45.9598 50.9153C47.1801 52.1357 47.1801 54.1144 45.9598 55.3348C44.7394 56.5551 42.7607 56.5551 41.5403 55.3348L25.9153 39.7097C24.6949 38.4894 24.6949 36.5106 25.9153 35.2903L41.5403 19.6652Z" fill="url(#paint1_linear)"/>
</g>
<defs>
<linearGradient id="paint0_linear" x1="37.5" y1="0" x2="37.5" y2="75" gradientUnits="userSpaceOnUse">
<stop stop-color="#24CA7A"/>
<stop offset="0.5" stop-color="#24B39E"/>
<stop offset="0.96875" stop-color="#2498CA"/>
</linearGradient>
<linearGradient id="paint1_linear" x1="35.9375" y1="18.75" x2="35.9375" y2="56.25" gradientUnits="userSpaceOnUse">
<stop stop-color="#24CA7A"/>
<stop offset="0.5" stop-color="#24B39E"/>
<stop offset="0.96875" stop-color="#2498CA"/>
</linearGradient>
<clipPath id="clip0">
<rect width="75" height="75" fill="white" transform="matrix(-1 0 0 1 75 0)"/>
</clipPath>
</defs>
</svg>
